<svg width="23" height="22" viewBox="0 0 23 22" fill="none" xmlns="http://www.w3.org/2000/svg">
<path d="M9.47139 1.42799L10.5675 0.343991C11.0318 -0.115009 11.7819 -0.115009 12.2411 0.343991L21.8409 9.832C22.3052 10.291 22.3052 11.033 21.8409 11.487L12.2411 20.979C11.7768 21.438 11.0267 21.438 10.5675 20.979L9.47139 19.895C9.00208 19.431 9.01213 18.674 9.49147 18.22L15.441 12.615H1.24951C0.592685 12.615 0.0652161 12.092 0.0652161 11.443V9.88C0.0652161 9.231 0.592685 8.70799 1.24951 8.70799H15.441L9.49147 3.10299C9.00712 2.64899 8.99707 1.89199 9.47139 1.42799Z" fill="#FA012E"/>
</svg>
