<svg width="48" height="48" viewBox="0 0 48 48" fill="none" xmlns="http://www.w3.org/2000/svg">
<path d="M6.36199 10.8045L6.36228 10.8039C7.34139 8.88704 8.9049 7.3273 10.8296 6.34943C10.8297 6.3494 10.8298 6.34936 10.8298 6.34933L17.2204 3.10369C18.654 2.37608 20.2335 2.00211 21.83 2.00001C22.7147 8.061 27.5406 12.8438 33.633 13.6672C34.4616 19.7486 39.2651 24.5532 45.3357 25.4331C45.3312 27.0264 44.9553 28.6018 44.2246 30.0308L44.2244 30.0311L40.9794 36.3792L40.9792 36.3796C39.9999 38.2963 38.4365 39.856 36.5119 40.8342C36.5117 40.8343 36.5115 40.8344 36.5113 40.8345L30.1207 44.0792L30.1205 44.0793C28.2003 45.0546 26.0202 45.3991 23.8931 45.063L23.8929 45.063L16.8011 43.9433C14.6706 43.6066 12.7027 42.6064 11.179 41.087L11.1787 41.0866L6.11557 36.0403C6.11548 36.0402 6.11538 36.0401 6.11528 36.04C6.11521 36.0399 6.11514 36.0399 6.11508 36.0398C4.58587 34.5144 3.5809 32.5466 3.24294 30.4185L3.24291 30.4183L2.12611 23.3892C2.12611 23.3892 2.1261 23.3891 2.12609 23.3891C1.78775 21.2585 2.13441 19.0755 3.11692 17.1527C3.11697 17.1526 3.11701 17.1525 3.11705 17.1524L6.36199 10.8045ZM11.3133 30.9663C11.3133 33.7053 13.5395 35.9155 16.2717 35.9155C19.004 35.9155 21.2302 33.7053 21.2302 30.9663C21.2302 28.2273 19.004 26.0171 16.2717 26.0171C13.5395 26.0171 11.3133 28.2273 11.3133 30.9663ZM14.2717 16.2202C14.2717 18.9592 16.4979 21.1694 19.2302 21.1694C21.9625 21.1694 24.1887 18.9592 24.1887 16.2202C24.1887 13.4812 21.9625 11.271 19.2302 11.271C16.4979 11.271 14.2717 13.4812 14.2717 16.2202ZM29.0641 28.0171C29.0641 30.756 31.2903 32.9663 34.0225 32.9663C36.7548 32.9663 38.981 30.756 38.981 28.0171C38.981 25.2781 36.7548 23.0678 34.0225 23.0678C31.2903 23.0678 29.0641 25.2781 29.0641 28.0171Z" fill="white" stroke="#FA012E" stroke-width="4"/>
</svg>
