<svg width="35" height="40" viewBox="0 0 35 40" fill="none" xmlns="http://www.w3.org/2000/svg">
<path d="M26 12.5V14H27.5H33.5V33.75C33.5 36.3734 31.3734 38.5 28.75 38.5H6.25C3.62663 38.5 1.5 36.3734 1.5 33.75V14H7.5H9V12.5V10C9 5.31436 12.8144 1.5 17.5 1.5C22.1856 1.5 26 5.31437 26 10V12.5ZM22.5 14H24V12.5V10C24 6.41454 21.0855 3.5 17.5 3.5C13.9145 3.5 11 6.41454 11 10V12.5V14H12.5H22.5ZM21.625 17.5C21.625 19.364 23.136 20.875 25 20.875C26.864 20.875 28.375 19.364 28.375 17.5C28.375 15.636 26.864 14.125 25 14.125C23.136 14.125 21.625 15.636 21.625 17.5ZM6.625 17.5C6.625 19.364 8.13603 20.875 10 20.875C11.864 20.875 13.375 19.364 13.375 17.5C13.375 15.636 11.864 14.125 10 14.125C8.13603 14.125 6.625 15.636 6.625 17.5Z" fill="#ECE9E9" stroke="#4E4949" stroke-width="3"/>
</svg>
