<svg width="23" height="22" viewBox="0 0 23 22" fill="none" xmlns="http://www.w3.org/2000/svg">
<path d="M9.75928 1.42822L10.8704 0.344238C11.3408 -0.114746 12.1016 -0.114746 12.567 0.344238L22.2965 9.83154C22.767 10.2905 22.767 11.0327 22.2965 11.4868L12.567 20.979C12.0966 21.438 11.3358 21.438 10.8704 20.979L9.75928 19.895C9.28381 19.4312 9.29382 18.6743 9.7793 18.2202L15.8102 12.6147H1.42615C0.760498 12.6147 0.224976 12.0923 0.224976 11.4429V9.88037C0.224976 9.23096 0.760498 8.7085 1.42615 8.7085H15.8102L9.7793 3.10303C9.28882 2.64893 9.27881 1.89209 9.75928 1.42822Z" fill="#FA012E"/>
</svg>
