<svg width="23" height="22" viewBox="0 0 23 22" fill="none" xmlns="http://www.w3.org/2000/svg">
<path d="M9.47139 1.42822L10.5676 0.344238C11.0317 -0.114746 11.7823 -0.114746 12.2415 0.344238L21.8407 9.83154C22.3048 10.2905 22.3048 11.0327 21.8407 11.4868L12.2415 20.979C11.7774 21.438 11.0268 21.438 10.5676 20.979L9.47139 19.895C9.00229 19.4312 9.01217 18.6743 9.49114 18.2202L15.4412 12.6147H1.2499C0.593167 12.6147 0.0648193 12.0923 0.0648193 11.4429V9.88037C0.0648193 9.23096 0.593167 8.7085 1.2499 8.7085H15.4412L9.49114 3.10303C9.00723 2.64893 8.99735 1.89209 9.47139 1.42822Z" fill="#FA012E"/>
</svg>
