<svg width="22" height="22" viewBox="0 0 22 22" fill="none" xmlns="http://www.w3.org/2000/svg">
<path d="M9.302 1.42825L10.386 0.34425C10.845 -0.11475 11.587 -0.11475 12.041 0.34425L21.533 9.83226C21.992 10.2913 21.992 11.0333 21.533 11.4873L12.041 20.9793C11.582 21.4383 10.84 21.4383 10.386 20.9793L9.302 19.8953C8.838 19.4313 8.848 18.6743 9.321 18.2203L15.205 12.6153H1.172C0.521997 12.6153 0 12.0922 0 11.4432V9.88026C0 9.23126 0.521997 8.70825 1.172 8.70825H15.205L9.321 3.10325C8.843 2.64925 8.833 1.89225 9.302 1.42825Z" fill="#FA012E"/>
</svg>
